<svg width="30" height="30" viewBox="0 0 30 30" fill="none" xmlns="http://www.w3.org/2000/svg">
    <path d="M18.961 15.3875C18.961 13.3011 17.263 11.6032 15.1767 11.6032C13.0903 11.6032 11.3923 13.3011 11.3923 15.3875C11.3923 17.4739 13.0792 19.1719 15.1767 19.1719C17.263 19.1719 18.961 17.4739 18.961 15.3875Z" fill="#FFFBFE" fill-opacity="0.7"/>
    <path fill-rule="evenodd" clip-rule="evenodd" d="M18.85 6.65357H11.6143C8.89532 6.65357 6.67577 8.86203 6.67577 11.5699V18.85C6.67577 21.5579 8.89532 23.7663 11.6143 23.7663H18.85C21.569 23.7663 23.7885 21.5579 23.7885 18.85V11.5699C23.7885 8.86203 21.569 6.65357 18.85 6.65357ZM20.9031 15.3986C20.9031 12.2358 18.3395 9.67217 15.1767 9.67217C12.0138 9.67217 9.45021 12.2358 9.45021 15.3986C9.45021 18.5615 12.0138 21.1251 15.1767 21.1251C18.3395 21.1251 20.9031 18.5615 20.9031 15.3986ZM21.6467 9.80534C21.6467 9.28374 21.225 8.87313 20.7145 8.87313C20.1929 8.87313 19.7822 9.29484 19.7822 9.80534C19.7822 10.3269 20.204 10.7376 20.7145 10.7376C21.2361 10.7376 21.6467 10.3158 21.6467 9.80534Z" fill="#FFFBFE" fill-opacity="0.7"/>
    <path fill-rule="evenodd" clip-rule="evenodd" d="M15 30C23.2843 30 30 23.2843 30 15C30 6.71573 23.2843 0 15 0C6.71573 0 0 6.71573 0 15C0 23.2843 6.71573 30 15 30ZM19.5603 5H10.904C7.66347 5 5 7.61908 5 10.8263V19.4604C5 22.6677 7.65237 25.2867 10.904 25.2867H19.5603C22.8119 25.2867 25.4643 22.6677 25.4643 19.4604V10.8263C25.4643 7.63017 22.8119 5 19.5603 5Z" fill="#FFFBFE" fill-opacity="0.7"/>
</svg>
