<svg width="30" height="30" viewBox="0 0 30 30" fill="none" xmlns="http://www.w3.org/2000/svg">
    <path d="M22.3629 7.70429C22.3627 7.69524 22.3626 7.68532 22.3635 7.67061C22.3435 7.67061 22.3376 7.67061 22.3324 7.67255C22.3254 7.67518 22.3197 7.68139 22.2815 7.69604C22.212 7.72465 20.9845 8.23961 19.3245 8.94212C17.9336 9.53346 16.1925 10.2721 14.4039 11.0309C14.0581 11.1776 13.7105 11.3251 13.3633 11.4724C9.08411 13.2875 4.87433 15.0739 4.87433 15.0739L4.84909 15.0835L4.82384 15.0962C4.82384 15.0962 4.80175 15.1057 4.7986 15.1057C4.7986 15.1057 4.80254 15.1065 4.80491 15.1073C4.80727 15.1081 4.81122 15.1089 4.81122 15.1089V15.1121L9.52591 16.711L9.52907 16.7269L19.3656 10.5887C19.3656 10.5887 19.8736 10.3281 19.8515 10.6968C19.8515 10.6968 19.9588 10.7604 19.6369 11.0623C19.3151 11.3643 11.8359 18.3862 11.8359 18.3862L11.23 22.2833L14.1144 19.6354L18.889 23.3228C19.151 23.4277 19.2015 23.3959 19.2646 23.345C19.3182 23.3024 19.3416 23.2597 19.3549 23.2352C19.3565 23.2324 19.3579 23.2298 19.3592 23.2274L22.3477 7.82319V7.81366C22.3634 7.7436 22.3632 7.72656 22.3629 7.70429Z" fill="#FFFBFE" fill-opacity="0.7"/>
    <path fill-rule="evenodd" clip-rule="evenodd" d="M15 30C23.2843 30 30 23.2843 30 15C30 6.71573 23.2843 0 15 0C6.71573 0 0 6.71573 0 15C0 23.2843 6.71573 30 15 30ZM21.6913 6.18296C21.9186 6.09395 22.1742 6.01448 22.4456 6.00177C22.717 5.98905 23.0104 6.04309 23.3071 6.2211C23.6006 6.39594 23.8436 6.72335 23.9382 7.07301C24.0329 7.42267 24.0108 7.78187 23.9256 8.1665L20.9087 23.7329L20.8803 23.806C20.8803 23.806 20.7099 24.2605 20.2713 24.6165C19.8358 24.9694 19.0121 25.1696 18.1979 24.8104L18.1096 24.7723L14.2059 21.7557L11.8769 23.8918L11.8485 23.914C11.8485 23.914 11.3468 24.305 10.7219 24.1143L10.7161 24.1134C10.6788 24.1076 10.6573 24.1043 10.6273 24.0952C10.6232 24.0939 10.6191 24.0913 10.6147 24.0886C10.609 24.085 10.6029 24.0811 10.5957 24.0793L10.6037 24.0812C10.5978 24.0791 10.592 24.0765 10.5862 24.073C10.5358 24.0539 10.4853 24.0317 10.4379 24.003C10.318 23.9268 10.217 23.8314 10.1318 23.717C9.9551 23.4944 9.81309 23.202 9.66792 22.7347C9.51275 22.2418 9.04783 20.7105 8.68107 19.5025C8.46604 18.7942 8.28475 18.1971 8.21943 17.9857L4.27474 16.6474H4.26843C4.26843 16.6474 4.0065 16.5552 3.73195 16.3581C3.46056 16.1642 3.08187 15.8114 3.00928 15.2233C2.9651 14.8768 3.08502 14.5399 3.23334 14.3206C3.38166 14.1012 3.55207 13.9614 3.7067 13.8596C3.94705 13.6932 4.17944 13.5988 4.26524 13.5669C4.54848 13.4466 8.60814 11.7226 12.7353 9.97203C13.7474 9.54264 14.7629 9.11183 15.7282 8.70238C16.8066 8.24492 17.8221 7.81412 18.6997 7.44174C19.0373 7.29914 19.3515 7.16636 19.6398 7.04452C20.7717 6.56615 21.5046 6.25643 21.6882 6.18296H21.6913Z" fill="#FFFBFE" fill-opacity="0.7"/>
</svg>
