<svg width="30" height="30" viewBox="0 0 30 30" fill="none" xmlns="http://www.w3.org/2000/svg">
    <path fill-rule="evenodd" clip-rule="evenodd" d="M10.8235 21.8618C12.0936 22.6492 13.5576 23.0653 15.0431 23.0653H15.0538C19.6179 23.0653 23.3315 19.1735 23.3315 14.4044C23.3315 12.0873 22.4704 9.92769 20.9096 8.28548C19.3488 6.65453 17.2605 5.75469 15.0538 5.75469C10.479 5.75469 6.76534 9.63524 6.76534 14.4044C6.76534 16.0353 7.20667 17.6326 8.03552 19.0048L8.22928 19.331L7.38967 22.5254L10.5221 21.6706L10.8235 21.8618ZM17.8848 15.7429C18.1109 15.8329 19.338 16.4515 19.5856 16.5865L19.5963 16.564C19.6481 16.5922 19.6966 16.6175 19.7413 16.6408C19.9107 16.7292 20.0274 16.79 20.07 16.8789C20.1238 16.9914 20.1238 17.5088 19.9193 18.1162C19.7148 18.7236 18.7137 19.2748 18.24 19.3535C17.8095 19.421 17.2605 19.4435 16.6685 19.2523C16.3025 19.1285 15.8396 18.9711 15.2476 18.7011C12.961 17.6712 11.4054 15.3778 11.06 14.8685C11.0281 14.8216 11.0066 14.7898 10.9957 14.7756C10.993 14.7717 10.9898 14.7672 10.9862 14.7622C10.8364 14.5496 9.98385 13.3399 9.98385 12.0873C9.98385 10.8899 10.5471 10.2614 10.8057 9.97276C10.824 9.95231 10.8408 9.93356 10.8558 9.91644C11.0926 9.65774 11.3617 9.59025 11.5231 9.59025C11.6846 9.59025 11.8461 9.59025 11.9968 9.6015C12.0151 9.60287 12.0342 9.60307 12.054 9.60328C12.1972 9.60482 12.3768 9.60674 12.5565 10.0514C12.761 10.5801 13.2562 11.8511 13.3208 11.9861C13.3854 12.121 13.4284 12.2785 13.3423 12.4472C13.3251 12.4831 13.3101 12.5158 13.296 12.5465C13.2395 12.6698 13.1982 12.7598 13.0947 12.8859C13.0504 12.9399 13.0061 12.9979 12.9623 13.0553C12.8782 13.1653 12.7958 13.2732 12.718 13.3471C12.5888 13.4708 12.4596 13.617 12.6103 13.8757L12.614 13.882C12.7689 14.1479 13.2621 14.9947 13.9989 15.6754C14.7764 16.4047 15.4596 16.7173 15.8164 16.8806C15.8944 16.9162 15.9567 16.9447 16.0011 16.9689C16.2487 17.1039 16.3886 17.0702 16.5393 16.9014C16.5729 16.8583 16.6262 16.7918 16.6902 16.7122C16.893 16.4597 17.2023 16.0745 17.3251 15.8779C17.4865 15.6079 17.6588 15.6529 17.8848 15.7429Z" fill="#FFFBFE" fill-opacity="0.7"/>
    <path fill-rule="evenodd" clip-rule="evenodd" d="M15 30C23.2843 30 30 23.2843 30 15C30 6.71573 23.2843 0 15 0C6.71573 0 0 6.71573 0 15C0 23.2843 6.71573 30 15 30ZM15.0323 4C17.7018 4 20.1991 5.07981 22.0829 7.04821C23.9666 9.0166 25 11.6374 25 14.4156C25 20.1521 20.5328 24.82 15.0431 24.82C13.3746 24.82 11.7384 24.3814 10.2853 23.549L5 25L6.41012 19.601C5.53821 18.0262 5.07535 16.2378 5.07535 14.4044C5.07535 8.66792 9.54252 4 15.0323 4Z" fill="#FFFBFE" fill-opacity="0.7"/>
</svg>
